<svg width="800" height="600" xmlns="http://www.w3.org/2000/svg">
 <!-- Created with Method Draw - http://github.com/duopixel/Method-Draw/ -->
 <g>
  <title>background</title>
  <rect fill="#ffffff" id="canvas_background" height="602" width="802" y="-1" x="-1"/>
  <g display="none" overflow="visible" y="0" x="0" height="100%" width="100%" id="canvasGrid">
   <rect fill="url(#gridpattern)" stroke-width="0" y="0" x="0" height="100%" width="100%"/>
  </g>
 </g>
 <g>
  <title>Layer 1</title>
  <line stroke="#000" stroke-linecap="undefined" stroke-linejoin="undefined" id="svg_2" y2="73" x2="555" y1="72.94531" x1="215" stroke-width="50" fill="none"/>
  <line stroke="#000" stroke-linecap="undefined" stroke-linejoin="undefined" id="svg_3" y2="73" x2="530" y1="503.94529" x1="529.5" stroke-width="50" fill="none"/>
  <line stroke-linecap="undefined" stroke-linejoin="undefined" id="svg_4" y2="504" x2="215" y1="503.94531" x1="555" fill-opacity="null" stroke-opacity="null" stroke-width="50" stroke="#000" fill="none"/>
  <line stroke="#000" stroke-linecap="undefined" stroke-linejoin="undefined" id="svg_5" y2="418.94531" x2="261.5" y1="417.94531" x1="261.5" fill-opacity="null" stroke-opacity="null" stroke-width="1.5" fill="none"/>
  <line stroke="#000" stroke-linecap="undefined" stroke-linejoin="undefined" id="svg_6" y2="171.94531" x2="240" y1="71.94531" x1="240" fill-opacity="null" stroke-opacity="null" stroke-width="50" fill="none"/>
  <line stroke-linecap="undefined" stroke-linejoin="undefined" id="svg_7" y2="173.94531" x2="-221.5" y1="173.94531" x1="-222.5" fill-opacity="null" stroke-opacity="null" stroke-width="1.5" stroke="#000" fill="none"/>
  <path stroke="#000" transform="rotate(90 202.8971252441406,280.0830383300782) " id="svg_13" d="m164.15037,267.05375l39.20547,-124.86535l41.88077,136.79201l-20.48166,0.91744l0,138.07977l-42.79821,0l0,-138.07977l-21.3991,0z" fill="#000000"/>
  <line stroke="#000" stroke-linecap="undefined" stroke-linejoin="undefined" id="svg_15" y2="504.9744" x2="240" y1="404.9744" x1="240" fill-opacity="null" stroke-opacity="null" stroke-width="50" fill="none"/>
 </g>
</svg>